<svg width="195" height="195" viewBox="0 0 195 195" fill="none" xmlns="http://www.w3.org/2000/svg">
<path d="M195 0H0V195H195V0Z" fill="white"/>
<path d="M46.5341 65.2158C46.6968 63.6077 46.0836 62.0182 44.8828 60.9359L32.6513 46.2011V44H70.6302L99.986 108.381L125.795 44H162V46.2011L151.542 56.2281C150.64 56.9153 150.193 58.0449 150.38 59.1628V132.837C150.193 133.955 150.64 135.085 151.542 135.772L161.755 145.799V148H110.383V145.799L120.963 135.527C122.003 134.488 122.003 134.182 122.003 132.593V73.0417L92.5859 147.755H88.6106L54.3623 73.0417V123.116C54.0767 125.221 54.7759 127.341 56.2582 128.863L70.0187 145.554V147.755H31V145.554L44.7605 128.863C46.232 127.338 46.8904 125.204 46.5341 123.116V65.2158Z" fill="#12100E"/>
</svg>
